<?xml version="1.0" standalone="no"?>
<!DOCTYPE svg PUBLIC "-//W3C//DTD SVG 20010904//EN"
 "http://www.w3.org/TR/2001/REC-SVG-20010904/DTD/svg10.dtd">
<svg version="1.0" xmlns="http://www.w3.org/2000/svg"
 width="165.000000pt" height="88.000000pt" viewBox="0 0 165.000000 88.000000"
 preserveAspectRatio="xMidYMid meet">

<g transform="translate(0.000000,88.000000) scale(0.100000,-0.100000)"
fill="#000000" stroke="none">
<path d="M556 786 c-99 -23 -173 -45 -165 -48 8 -3 59 -14 113 -24 69 -13 92
-20 75 -24 -13 -3 -25 -14 -27 -24 -8 -40 43 -64 170 -82 26 -3 45 -10 42 -15
-3 -5 9 -9 25 -9 20 0 31 5 31 14 0 9 18 15 55 19 74 8 121 35 117 68 -2 13
-6 26 -8 28 -2 2 -43 -4 -91 -13 -141 -28 -141 -28 -118 -18 11 5 99 24 195
42 96 18 178 36 183 40 9 8 -357 91 -393 89 -14 0 -106 -20 -204 -43z m87
-103 c-7 -2 -19 -2 -25 0 -7 3 -2 5 12 5 14 0 19 -2 13 -5z m50 -10 c-7 -2
-19 -2 -25 0 -7 3 -2 5 12 5 14 0 19 -2 13 -5z m50 -10 c-7 -2 -19 -2 -25 0
-7 3 -2 5 12 5 14 0 19 -2 13 -5z"/>
<path d="M1017 672 c-3 -16 -9 -63 -13 -105 l-7 -77 37 0 c42 0 41 -4 24 121
-12 91 -30 117 -41 61z"/>
<path d="M673 558 c-4 -7 -13 -31 -18 -52 -9 -33 -15 -40 -40 -43 -16 -3 -32
-7 -35 -10 -3 -3 7 -3 23 -1 29 6 34 -1 15 -21 -11 -11 -9 -11 8 -1 25 15 48
63 53 112 1 3 13 11 29 16 l27 10 -27 1 c-15 1 -30 -5 -35 -11z"/>
<path d="M838 563 c6 -2 12 -19 12 -37 0 -24 7 -38 28 -52 42 -31 52 -36 52
-25 0 5 -13 18 -29 27 -20 12 -28 23 -25 37 5 27 -13 57 -34 56 -10 0 -12 -3
-4 -6z"/>
<path d="M995 440 c33 -4 83 -10 110 -14 l50 -6 -55 15 c-30 8 -80 14 -110 13
l-55 -1 60 -7z"/>
<path d="M498 433 c7 -3 16 -2 19 1 4 3 -2 6 -13 5 -11 0 -14 -3 -6 -6z"/>
<path d="M145 340 c-27 -27 -46 -52 -43 -56 13 -12 57 6 63 27 5 16 10 18 21
8 7 -6 20 -9 29 -5 8 3 14 0 12 -7 -1 -7 6 -11 16 -9 10 2 30 -4 43 -13 18
-12 29 -13 38 -6 8 7 24 7 52 0 49 -14 141 -5 163 15 12 11 16 26 13 46 -4 29
-3 30 36 30 33 0 41 -4 46 -23 3 -12 3 -33 -1 -45 -5 -20 -2 -22 29 -22 34 0
34 1 34 43 -1 40 0 42 32 45 17 2 32 8 32 13 0 6 -50 9 -123 8 l-123 -1 -1
-31 c-2 -70 0 -67 -52 -67 -57 0 -68 11 -66 63 1 36 0 37 -33 37 -22 0 -32 -4
-30 -12 5 -15 -13 -36 -33 -38 -24 -4 -43 0 -36 6 8 9 -37 44 -55 43 -7 0 -35
-22 -63 -49z m75 15 c0 -17 -17 -28 -30 -20 -6 4 -5 13 2 25 13 20 28 18 28
-5z m113 -45 c-6 -23 -8 -24 -34 -9 -24 13 -18 24 14 27 20 1 24 -2 20 -18z"/>
<path d="M770 338 c-46 -49 -48 -53 -28 -56 14 -3 29 4 39 17 24 30 100 19 82
-13 -3 -6 2 -3 13 6 19 17 21 16 37 -2 18 -21 37 -26 37 -10 0 6 -7 10 -15 10
-19 0 -19 19 0 40 13 15 13 17 0 17 -8 0 -15 -4 -15 -9 0 -4 -5 -8 -11 -8 -6
0 -9 9 -6 20 4 17 2 20 -13 15 -10 -3 -25 1 -33 10 -24 23 -32 19 -87 -37z
m84 11 c-8 -14 -34 -11 -34 4 0 8 3 17 7 20 9 9 34 -13 27 -24z m11 -19 c-3
-5 -1 -10 6 -10 7 0 10 -3 6 -6 -9 -9 -28 6 -22 17 4 5 8 9 11 9 3 0 2 -4 -1
-10z"/>
<path d="M979 388 c-1 -2 -2 -27 -3 -55 -2 -35 1 -53 9 -53 8 0 10 10 7 25 -7
38 21 42 86 11 32 -14 72 -28 90 -31 l32 -5 0 55 c0 48 -2 55 -20 55 -16 0
-19 -5 -14 -29 3 -16 1 -31 -4 -35 -6 -3 -45 10 -87 29 -71 32 -93 39 -96 33z"/>
<path d="M1268 333 c-49 -50 -51 -53 -27 -53 26 0 71 40 83 73 3 10 11 17 17
15 12 -4 11 -24 -1 -21 -12 4 -19 -36 -8 -44 6 -3 8 -2 5 3 -3 6 2 15 12 21
15 10 17 8 14 -12 -6 -26 14 -44 23 -21 5 14 8 14 21 1 8 -8 24 -15 36 -15
l21 0 -22 16 c-28 19 -28 32 1 44 18 8 16 9 -12 4 -31 -6 -33 -4 -28 15 4 17
2 20 -7 12 -9 -7 -16 -7 -24 1 -24 24 -52 14 -104 -39z"/>
</g>
</svg>
